Coordinates
version=1
nRows=17
nColumns=40
inDegrees=yes

Units are S.I. units (second, meters, Newtons, ...)
If the header above contains a line with 'inDegrees', this indicates whether rotational values are in degrees (yes) or radians (no).

endheader
time	pelvis_tilt	pelvis_list	pelvis_rotation	pelvis_tx	pelvis_ty	pelvis_tz	hip_flexion_r	hip_adduction_r	hip_rotation_r	knee_angle_r	knee_angle_r_beta	ankle_angle_r	subtalar_angle_r	mtp_angle_r	hip_flexion_l	hip_adduction_l	hip_rotation_l	knee_angle_l	knee_angle_l_beta	ankle_angle_l	subtalar_angle_l	mtp_angle_l	lumbar_extension	lumbar_bending	lumbar_rotation	arm_flex_r	arm_add_r	arm_rot_r	elbow_flex_r	pro_sup_r	wrist_flex_r	wrist_dev_r	arm_flex_l	arm_add_l	arm_rot_l	elbow_flex_l	pro_sup_l	wrist_flex_l	wrist_dev_l
      0.34000000	     21.39136588	      0.89648123	      4.27630203	      0.52567572	      0.96292612	     -0.30004074	     -4.86649135	      1.64180002	     -6.21191252	     26.50498510	      0.46259926	     -2.37569194	      0.00000000	      0.00000000	    -19.16325169	     -3.61228202	      4.39194181	     53.83957099	      0.93967778	    -19.67582760	      0.00000000	      0.00000000	    -33.35806290	      3.46640591	     -3.29709172	      6.49950337	    -18.39642154	     17.37122488	     39.52765470	     71.90515990	      0.00000000	      0.00000000	      6.28406442	    -22.10334487	     22.99095441	     48.29439128	     76.59665694	      0.00000000	      0.00000000
      0.34400000	     21.79793729	      0.80475787	      4.27376988	      0.53223925	      0.96478823	     -0.29974487	     -6.23876258	      1.89333293	     -6.32039054	     25.52925266	      0.44556951	     -2.53905605	      0.00000000	      0.00000000	    -19.12936151	     -3.77113862	      4.27688134	     53.87807597	      0.94034982	    -19.15662027	      0.00000000	      0.00000000	    -33.67052184	      3.55041809	     -3.08660615	      6.55275074	    -18.44445652	     17.33435657	     39.67719595	     71.62313970	      0.00000000	      0.00000000	      6.08809258	    -22.05366807	     22.96491120	     48.11631205	     77.10580137	      0.00000000	      0.00000000
      0.34800000	     21.89173029	      0.88526174	      4.18978842	      0.53816978	      0.96610033	     -0.29941270	     -7.02705476	      1.86107818	     -6.40630073	     25.01568762	      0.43660611	     -2.39395360	      0.00000000	      0.00000000	    -18.64019832	     -3.57926422	      4.33032665	     54.06437180	      0.94360130	    -18.63836820	      0.00000000	      0.00000000	    -33.71661121	      3.41299114	     -2.93219447	      6.74125183	    -18.47480387	     17.55876748	     39.76839813	     71.67862704	      0.00000000	      0.00000000	      5.97707973	    -22.03669643	     22.96744792	     47.83118287	     77.10720123	      0.00000000	      0.00000000
      0.35200000	     22.01907568	      0.96597475	      3.87477171	      0.54318848	      0.96743963	     -0.29911406	     -7.69624652	      1.74506787	     -6.32758858	     24.63976762	      0.43004507	     -2.41092004	      0.00000000	      0.00000000	    -18.11051751	     -3.27635740	      4.19744259	     54.27775891	      0.94732560	    -18.30501574	      0.00000000	      0.00000000	    -33.92081160	      3.18754788	     -2.59712997	      7.03015897	    -18.58510862	     17.80643858	     39.95393352	     71.70643430	      0.00000000	      0.00000000	      5.94483436	    -21.98421686	     22.97664110	     47.71499769	     77.15692177	      0.00000000	      0.00000000
      0.35600000	     22.61222092	      0.83874366	      3.80609074	      0.55010213	      0.96957642	     -0.29845421	     -9.39345355	      2.08111693	     -6.28740772	     23.44721678	      0.40923113	     -2.73959399	      0.00000000	      0.00000000	    -18.46580095	     -3.41232113	      4.11565523	     53.95106342	      0.94162369	    -17.73661260	      0.00000000	      0.00000000	    -34.36776645	      3.25082248	     -2.39644124	      7.13536336	    -18.62346451	     18.17931198	     40.13271877	     71.60477219	      0.00000000	      0.00000000	      5.61378934	    -21.96097039	     22.91782550	     47.63037855	     78.13078576	      0.00000000	      0.00000000
      0.36000000	     22.60586347	      0.92887813	      3.59751241	      0.55572688	      0.97065944	     -0.29823354	     -9.97280355	      1.95409398	     -6.41226220	     23.07300773	      0.40269995	     -2.62861234	      0.00000000	      0.00000000	    -17.84040869	     -3.15588520	      4.00866861	     54.05690707	      0.94347101	    -17.38626065	      0.00000000	      0.00000000	    -34.35676593	      3.05240687	     -2.14959496	      7.30195813	    -18.70853270	     18.31797034	     40.35555024	     71.62020375	      0.00000000	      0.00000000	      5.48594196	    -21.89635636	     22.90470471	     47.49171762	     78.18099317	      0.00000000	      0.00000000
      0.36400000	     22.57512518	      1.00348164	      3.41566902	      0.56134987	      0.97173717	     -0.29796386	    -10.63463661	      1.89884747	     -6.33653962	     22.46056043	      0.39201073	     -2.60850721	      0.00000000	      0.00000000	    -17.19649645	     -2.90234220	      3.99532712	     54.14395470	      0.94499028	    -16.84781553	      0.00000000	      0.00000000	    -34.30677906	      2.87360625	     -1.92073906	      7.48634236	    -18.78526768	     18.50779322	     40.53595167	     71.67998090	      0.00000000	      0.00000000	      5.35665127	    -21.82795365	     22.93972739	     47.34981653	     78.32143342	      0.00000000	      0.00000000
      0.36800000	     22.59116543	      1.03448709	      3.29970305	      0.56702631	      0.97274034	     -0.29748007	    -11.32618914	      1.91187729	     -6.43354506	     21.90017964	      0.38223024	     -2.56663506	      0.00000000	      0.00000000	    -16.59578770	     -2.77273215	      3.91573564	     54.19998625	      0.94596821	    -16.37084957	      0.00000000	      0.00000000	    -34.29663704	      2.74678087	     -1.71319479	      7.64003635	    -18.82751512	     18.68014041	     40.74412508	     71.73191904	      0.00000000	      0.00000000	      5.23809816	    -21.77999066	     22.77526366	     47.09874784	     78.35914347	      0.00000000	      0.00000000
      0.37200000	     23.03610420	      0.88341658	      3.44903483	      0.57350941	      0.97446323	     -0.29693604	    -12.92243603	      2.32929165	     -6.43965496	     20.49382193	      0.35768467	     -3.07210692	      0.00000000	      0.00000000	    -16.63319764	     -2.99897867	      4.01929952	     53.94783212	      0.94156729	    -15.77961588	      0.00000000	      0.00000000	    -34.62396417	      2.92349684	     -1.68868419	      7.80932637	    -18.75971995	     18.85156468	     40.82236667	     71.91203681	      0.00000000	      0.00000000	      4.91150834	    -21.85656801	     22.59883826	     47.11255157	     79.45995854	      0.00000000	      0.00000000
      0.37600000	     22.98767261	      0.98432893	      3.29214869	      0.57917321	      0.97535819	     -0.29649725	    -13.46926589	      2.20679590	     -6.59715569	     20.10945805	      0.35097625	     -2.96602148	      0.00000000	      0.00000000	    -15.96024774	     -2.78026702	      3.90003317	     53.91120868	      0.94092810	    -15.46316649	      0.00000000	      0.00000000	    -34.56936121	      2.70900647	     -1.49569318	      7.94245636	    -18.75281938	     18.91059678	     41.02929584	     71.93905642	      0.00000000	      0.00000000	      4.74492413	    -21.84552414	     22.55110150	     47.03736987	     79.51959400	      0.00000000	      0.00000000
      0.38000000	     23.07807532	      0.87838486	      3.06002352	      0.58566714	      0.97638537	     -0.29588564	    -14.51115987	      2.41849131	     -6.22384162	     19.04495964	      0.33239725	     -3.18305659	      0.00000000	      0.00000000	    -15.62494600	     -2.82861809	      3.63013080	     53.69297946	      0.93711928	    -14.82693347	      0.00000000	      0.00000000	    -34.54342720	      2.65057404	     -1.17459069	      7.96789450	    -18.83234944	     19.03557997	     41.36608724	     72.11388985	      0.00000000	      0.00000000	      4.35986453	    -21.73847691	     22.18741394	     46.99258057	     79.95333785	      0.00000000	      0.00000000
      0.38400000	     23.29434880	      1.05844843	      3.37053641	      0.59134013	      0.97763185	     -0.29585746	    -15.56999834	      2.40393106	     -6.77388556	     18.21599675	      0.31792912	     -3.35785624	      0.00000000	      0.00000000	    -15.23310293	     -2.62311202	      4.07326152	     53.54357020	      0.93451159	    -14.40484545	      0.00000000	      0.00000000	    -34.74378913	      2.59782206	     -1.45902088	      8.20987346	    -18.71571989	     19.10578199	     41.43019806	     72.28597523	      0.00000000	      0.00000000	      4.14872521	    -21.84287567	     22.01636431	     47.02053222	     80.32339889	      0.00000000	      0.00000000
      0.38800000	     23.25267350	      1.09130855	      3.24496392	      0.59677634	      0.97838181	     -0.29531371	    -16.14997013	      2.40949569	     -6.79347072	     17.69814299	      0.30889087	     -3.36002343	      0.00000000	      0.00000000	    -14.56635970	     -2.47804105	      4.01833255	     53.42693567	      0.93247594	    -13.90216153	      0.00000000	      0.00000000	    -34.70617152	      2.44802851	     -1.24812785	      8.35579085	    -18.76376820	     19.20140713	     41.71407547	     72.35409484	      0.00000000	      0.00000000	      3.99418203	    -21.84504190	     21.86873532	     46.99561760	     80.36726472	      0.00000000	      0.00000000
      0.39200000	     23.37318755	      1.03962281	      3.15663704	      0.60271569	      0.97930731	     -0.29464312	    -17.14906725	      2.58445362	     -6.71278708	     16.71306619	      0.29169803	     -3.64945699	      0.00000000	      0.00000000	    -14.16399878	     -2.53239091	      3.83824658	     53.18091361	      0.92818204	    -13.39239035	      0.00000000	      0.00000000	    -34.77688667	      2.39751681	     -1.12199307	      8.58874352	    -18.70883173	     19.35462399	     41.81513682	     72.56373771	      0.00000000	      0.00000000	      3.69059844	    -21.87458553	     21.57754661	     47.03877708	     80.41466730	      0.00000000	      0.00000000
      0.39600000	     23.31278240	      1.10084224	      3.06509610	      0.60829605	      0.97991968	     -0.29414151	    -17.64786526	      2.54156410	     -6.94224705	     16.34519072	      0.28527739	     -3.59917091	      0.00000000	      0.00000000	    -13.49335469	     -2.36468399	      3.78816652	     52.99043371	      0.92485754	    -13.01795285	      0.00000000	      0.00000000	    -34.69538049	      2.23051746	     -0.95583459	      8.74104497	    -18.70459239	     19.41295133	     42.05329975	     72.59640743	      0.00000000	      0.00000000	      3.52562021	    -21.91503364	     21.50997469	     47.08226688	     80.40291440	      0.00000000	      0.00000000
      0.40000000	     23.59020236	      1.08362587	      3.10276857	      0.61421141	      0.98103794	     -0.29356429	    -18.85868108	      2.73482443	     -6.80470633	     15.30202102	      0.26707065	     -4.01441862	      0.00000000	      0.00000000	    -13.29516849	     -2.39381133	      3.82018853	     52.63584124	      0.91866873	    -12.43292402	      0.00000000	      0.00000000	    -34.94317436	      2.22271681	     -0.98488028	      9.01658597	    -18.64298125	     19.57749771	     42.29993489	     72.22923942	      0.00000000	      0.00000000	      3.08972272	    -22.00109324	     20.89345075	     47.29631839	     79.88286241	      0.00000000	      0.00000000
      0.40400000	     23.46242000	      1.10749158	      3.06620746	      0.61958387	      0.98140881	     -0.29310137	    -19.39305873	      2.78812495	     -6.90010644	     14.67318877	      0.25609546	     -3.95258645	      0.00000000	      0.00000000	    -12.52361129	     -2.27754543	      3.81968030	     52.46902061	      0.91575716	    -11.84928659	      0.00000000	      0.00000000	    -34.82248612	      2.11791125	     -0.87485467	      9.18589507	    -18.62731908	     19.83769505	     42.56533888	     72.65941759	      0.00000000	      0.00000000	      2.95409202	    -22.04914845	     21.12287910	     47.24486124	     80.28809306	      0.00000000	      0.00000000
